<svg xmlns="http://www.w3.org/2000/svg" xmlns:xlink="http://www.w3.org/1999/xlink" width="62" height="85" fill="none" xmlns:v="https://vecta.io/nano"><g clip-path="url(#G)"><path d="M61.857 26.481l-.192 39.801-.032 7.698c-.032 6.117-5.846 11.052-13.001 11.02l-35.744-.16C5.75 84.792-.032 79.809 0 73.676l.224-47.499c.016-4.951 3.849-9.136 9.088-10.525l.016-2.555v-1.31l43.554.208-.016 3.865c5.223 1.453 9.008 5.654 8.992 10.621z" fill="url(#A)"/><path d="M56.124 1.773v.351l-.032 4.153-.032 4.073v.495c0 .767-.639 1.39-1.406 1.39h-.335l-2.108-.016-2.316-.016-2.108-.016-2.316-.016-2.14-.032-2.316-.016-2.108-.016-2.332-.016-2.124-.016-2.316-.016-2.108-.032-2.316-.016-2.108-.016-2.332-.016-2.124-.016-2.3-.016-2.108-.016-2.316-.016-2.124-.016-2.316-.016-2.124-.016h-.335c-.767 0-1.39-.639-1.39-1.405v-.016-.351l.064-8.209V1.39C6.197.623 6.836 0 7.618 0h.335l4.44.032 4.44.032 2.124.016 2.316.016 2.108.016 4.424.048 2.316.016 2.108.016 2.316.016 2.108.016L38.97.24l2.108.016 2.316.016 2.108.016L47.85.32l2.108.016 2.316.016 2.124.016h.335c.783.016 1.39.639 1.39 1.405z" fill="url(#B)"/><path d="M56.124 2.14l-.032 4.137-.032 4.073-1.901-.016-2.523-.016-2.316-.016H46.78l-2.316-.016-2.523-.016-2.316-.016h-2.539l-2.316-.016-2.539-.016-2.3-.016h-2.54l-2.316-.016-2.54-.016-2.316-.016h-2.523l-2.316-.016-2.54-.016-2.316-.016H8.002l-1.869-.016.064-8.209 4.44.016 4.839.032 2.316.016 2.539.016h2.316l4.839.032 2.539.016h2.316l2.539.016 2.3.016 2.539.016h2.316l2.54.016 2.3.016 2.539.016h2.316l2.54.016 1.853.016z" fill="url(#C)"/><path d="M61.811 34.884L.177 34.593.048 61.92l61.634.291.129-27.327z" fill="#f7f9fc"/><path d="M61.822 34.884L.188 34.593.164 39.512l61.634.291.023-4.919z" fill="#fbfcf7"/><path d="M24.213 45.58l-3.977-.016.016-3.993-5.478-.016-.016 3.977-3.977-.016-.032 5.462 3.977.016-.016 3.993 5.478.016.016-3.977 3.977.016.032-5.462z" fill="url(#D)"/><use xlink:href="#H" fill="url(#E)"/><path opacity=".5" d="M51.22 52.768l-19.709-.096a.96.96 0 0 1-.958-.958v-.447a.96.96 0 0 1 .958-.958l19.709.096a.96.96 0 0 1 .958.958v.447a.96.96 0 0 1-.958.958z" fill="url(#F)"/><path opacity=".08" d="M6.133 1.773v.351l.032 4.153.032 4.057v.495c0 .767.639 1.39 1.405 1.39h.335l2.124-.016 2.316-.016 2.108-.016 2.316-.016 2.108-.016 2.316-.016 2.108-.016 2.316-.016 2.124-.016 2.316-.016 2.108-.016 2.316-.016 2.108-.016 2.316-.016 2.124-.016 2.316-.016 2.108-.016 2.316-.016 2.108-.016 2.316-.016 2.124-.016h.335c.767 0 1.389-.639 1.389-1.405v-.016-.351C31.368 11.18 7.523.367 7.523.367c-.767.016-1.39.639-1.39 1.405z" fill="#1a6fb5"/></g><defs><linearGradient id="A" x1="0" y1="11.333" x2="57.139" y2="90.194" xlink:href="#I"><stop stop-color="#6cbcfc"/><stop offset="1" stop-color="#458dfc"/></linearGradient><linearGradient id="B" x1="-629.93" y1="-39.931" x2="-27.604" y2="2.022" xlink:href="#I"><stop stop-color="#b0f4ff"/><stop offset=".053" stop-color="#a9f2ff"/><stop offset=".288" stop-color="#8de8fe"/><stop offset=".525" stop-color="#79e1fd"/><stop offset=".762" stop-color="#6dddfc"/><stop offset="1" stop-color="#69dcfc"/></linearGradient><linearGradient id="C" x1="6.14" y1="6.113" x2="56.126" y2="6.113" xlink:href="#I"><stop stop-color="#b0f4ff"/><stop offset=".053" stop-color="#a9f2ff"/><stop offset=".288" stop-color="#8de8fe"/><stop offset=".525" stop-color="#79e1fd"/><stop offset=".762" stop-color="#6dddfc"/><stop offset="1" stop-color="#69dcfc"/></linearGradient><linearGradient id="D" x1="21.978" y1="43.095" x2="12.598" y2="53.912" xlink:href="#I"><stop stop-color="#6cbcfc"/><stop offset="1" stop-color="#458dfc"/></linearGradient><linearGradient id="E" x1="52.385" y1="45.671" x2="28.887" y2="45.671" xlink:href="#I"><stop stop-color="#6cbcfc"/><stop offset="1" stop-color="#458dfc"/></linearGradient><linearGradient id="F" x1="30.552" y1="51.532" x2="52.179" y2="51.532" xlink:href="#I"><stop stop-color="#6cbcfc"/><stop offset="1" stop-color="#458dfc"/></linearGradient><clipPath id="G"><path fill="#fff" d="M0 0h61.857v85H0z"/></clipPath><path id="H" d="M51.236 46.906l-19.709-.096a.96.96 0 0 1-.958-.958v-.447a.96.96 0 0 1 .958-.958l19.709.096a.96.96 0 0 1 .958.958v.447a.96.96 0 0 1-.958.958z"/><linearGradient id="I" gradientUnits="userSpaceOnUse"/></defs></svg>