<svg xmlns="http://www.w3.org/2000/svg" xmlns:xlink="http://www.w3.org/1999/xlink" width="68" height="95" fill="none" xmlns:v="https://vecta.io/nano"><g clip-path="url(#K)"><path d="M67.711 90.448a4.49 4.49 0 0 1-4.485 4.494l-58.005.066c-1.973 0-3.648-1.269-4.253-3.035a4.39 4.39 0 0 1-.24-1.443L.635 6.882a4.49 4.49 0 0 1 4.486-4.494l53.262-.058 4.743-.008a4.49 4.49 0 0 1 4.494 4.486l.091 83.641z" fill="url(#A)"/><path d="M61.7 89.967l-54.962.058a2.41 2.41 0 0 1-2.413-2.413L4.242 9.767a2.41 2.41 0 0 1 2.413-2.413l54.954-.058a2.41 2.41 0 0 1 2.413 2.413l.083 77.846c.008 1.327-1.07 2.413-2.404 2.413z" fill="#fff"/><path d="M53.98 13.714l-40.088.05c-1.327 0-2.413-1.078-2.413-2.404l-.008-6.683c0-1.327 1.078-2.413 2.404-2.413l40.096-.041c1.327 0 2.413 1.078 2.413 2.404l.008 6.683a2.42 2.42 0 0 1-2.413 2.404zM13.876 3.491c-.647 0-1.177.531-1.177 1.177l.008 6.683c0 .647.531 1.177 1.177 1.177l40.096-.041c.647 0 1.177-.531 1.177-1.177l-.008-6.683c0-.647-.531-1.177-1.177-1.177l-40.096.041z" fill="url(#B)"/><path d="M52.845 5.116l-37.434.041c-.415 0-.746-.332-.746-.746V.788c0-.415.332-.746.746-.746L52.836 0c.415 0 .746.332.746.746v3.623a.73.73 0 0 1-.738.746z" fill="url(#C)"/><g fill="#58d6f4"><path d="M15.788 5.595l37.368-.041a.78.78 0 0 0 .779-.779V3L15 3.041v1.774c0 .431.357.779.788.779zm12.788 75.617l-3.233-19.567-2.62 8.515-7.495.008a.82.82 0 1 1 0-1.642l6.293-.008 4.32-14.02 3.234 19.617 4.195-13.473 2.23 6.384 5.024-12.18 4.884 19.318 1.841-6.144 5.389-.008a.82.82 0 1 1 0 1.642l-4.17.008-3.192 10.654-5.124-20.263-4.784 11.583-2.015-5.762-4.776 15.339z"/></g><path d="M23.021 43.487l-10.538.008c-1.7 0-3.093-1.385-3.093-3.084l-.017-14.733c0-1.7 1.385-3.093 3.084-3.093l10.538-.008c1.7 0 3.093 1.385 3.093 3.084l.017 14.733c0 1.7-1.385 3.084-3.084 3.093zM12.45 23.481c-1.21 0-2.189.987-2.189 2.197l.017 14.733c0 1.211.987 2.189 2.197 2.189l10.538-.008c1.211 0 2.189-.987 2.189-2.197l-.017-14.733c0-1.21-.987-2.189-2.197-2.189l-10.538.008z" fill="url(#D)"/><path d="M17.74 40.66c4.983-.008 6.533-2.885 6.533-2.885-.224-.282-.506-.531-.887-.779-1.31-.854-2.363-1.219-2.802-1.584-.448-.356-.696-.879-.696-.879l-.274.166s-.166-.572-.075-1.443c0 0 .39-.099.68-1.418.464.091 1.011-1.086.754-1.517-.166-.282-.365-.257-.506-.191.141-.589.779-3.847-2.736-3.847s-2.877 3.258-2.728 3.847c-.141-.066-.34-.091-.506.191-.257.431.299 1.609.763 1.517.29 1.318.688 1.41.688 1.41.1.862-.075 1.443-.075 1.443l-.274-.166s-.249.514-.697.879-1.492.738-2.802 1.592c-.381.249-.672.498-.887.779-.008.017 1.55 2.894 6.525 2.885z" fill="url(#E)"/><path d="M50.556 27.278l-20.288.025c-.381 0-.688-.307-.688-.688v-.116c0-.381.307-.688.688-.688l20.288-.025c.381 0 .688.307.688.688v.116a.69.69 0 0 1-.688.688z" fill="url(#F)"/><path d="M43.094 31.142l-12.826.017c-.381 0-.688-.307-.688-.688v-.116c0-.381.307-.688.688-.688l12.826-.017c.381 0 .688.307.688.688v.116c0 .381-.307.688-.688.688z" fill="url(#G)"/><path opacity=".6" d="M57.554 35.735l-27.278.033c-.381 0-.688-.307-.688-.688v-.116c0-.381.307-.688.688-.688l27.278-.033c.381 0 .688.307.688.688v.116c-.008.381-.315.688-.688.688z" fill="url(#H)"/><path opacity=".6" d="M56.965 48.644l-45.502.05c-.39 0-.713-.315-.713-.713v-.066c0-.39.315-.713.713-.713l45.502-.05c.39 0 .713.315.713.713v.066c0 .398-.323.713-.713.713z" fill="url(#I)"/><path opacity=".6" d="M57.554 40.245l-27.278.033c-.381 0-.688-.307-.688-.688v-.116c0-.381.307-.688.688-.688l27.278-.033c.381 0 .688.307.688.688v.116c0 .381-.307.688-.688.688z" fill="url(#J)"/></g><defs><linearGradient id="A" x1="-8.654" y1="34.748" x2="76.999" y2="62.578" xlink:href="#L"><stop stop-color="#6cbcfc"/><stop offset=".171" stop-color="#5eabfc"/><stop offset=".408" stop-color="#509afc"/><stop offset=".67" stop-color="#4890fc"/><stop offset="1" stop-color="#458dfc"/></linearGradient><linearGradient id="B" x1="-4.59" y1="-21.375" x2="56.387" y2="7.99" xlink:href="#L"><stop stop-color="#cfe9ff"/><stop offset="1" stop-color="#a1d6fb"/></linearGradient><linearGradient id="C" x1="14.654" y1="2.58" x2="53.59" y2="2.58" xlink:href="#L"><stop stop-color="#b0f4ff"/><stop offset="1" stop-color="#69dcfc"/></linearGradient><linearGradient id="D" x1="14.77" y1="29.208" x2="24.551" y2="41.833" xlink:href="#L"><stop stop-color="#6cbcfc"/><stop offset="1" stop-color="#458dfc"/></linearGradient><linearGradient id="E" x1="13.709" y1="30.029" x2="23.49" y2="42.655" xlink:href="#L"><stop stop-color="#b0f4ff"/><stop offset=".099" stop-color="#a1effe"/><stop offset=".299" stop-color="#88e7fd"/><stop offset=".509" stop-color="#77e1fd"/><stop offset=".734" stop-color="#6cddfc"/><stop offset="1" stop-color="#69dcfc"/></linearGradient><linearGradient id="F" x1="29.581" y1="26.551" x2="51.24" y2="26.564" xlink:href="#L"><stop stop-color="#6cbcfc"/><stop offset="1" stop-color="#458dfc"/></linearGradient><linearGradient id="G" x1="29.585" y1="30.404" x2="43.781" y2="30.404" xlink:href="#L"><stop stop-color="#6cbcfc"/><stop offset="1" stop-color="#458dfc"/></linearGradient><linearGradient id="H" x1="29.589" y1="35.01" x2="58.237" y2="35.01" xlink:href="#L"><stop stop-color="#6cbcfc"/><stop offset="1" stop-color="#458dfc"/></linearGradient><linearGradient id="I" x1="10.75" y1="47.927" x2="57.676" y2="47.927" xlink:href="#L"><stop stop-color="#6cbcfc"/><stop offset="1" stop-color="#458dfc"/></linearGradient><linearGradient id="J" x1="29.594" y1="39.519" x2="58.242" y2="39.519" xlink:href="#L"><stop stop-color="#6cbcfc"/><stop offset="1" stop-color="#458dfc"/></linearGradient><clipPath id="K"><path fill="#fff" transform="translate(.635)" d="M0 0h67.075v95H0z"/></clipPath><linearGradient id="L" gradientUnits="userSpaceOnUse"/></defs></svg>